ffmpeg started on 2026-01-13 at 11:18:40
Report written to "D:\Convert\FFMetrics\reports\psnr_report-6.txt"
Log level: 32
Command line:
ffmpeg -hide_banner -nostdin -r 24000/1001 -i "F:\\Convert\\files\\[DC] Make Heroine ga Oosugiru - 07_Telegram_HEVC(75).mkv" -r 24000/1001 -i "F:\\Convert\\files\\[DC] Make Heroine ga Oosugiru - 07_Telegram.mp4" -lavfi "[0:v]settb=AVTB,setpts=PTS-STARTPTS,format=pix_fmts=yuv420p10le,fps=24000/1001,scale=1920:1080:flags=lanczos:param0=3:out_range=limited:out_color_matrix=bt709:out_chroma_loc=left,setsar=1/1,setdar=(1920/1080)*(1/1),colorspace=format=yuv420p10:range=tv:primaries=bt709:trc=bt709:space=bt709:fast=0[main];[1:v]settb=AVTB,setpts=PTS-STARTPTS,format=pix_fmts=yuv420p,fps=24000/1001,scale=1920:1080:flags=lanczos:param0=3:out_range=limited:out_color_matrix=bt709:out_chroma_loc=left,setsar=1.000,setdar=1.778,colorspace=format=yuv420p:range=tv:primaries=bt709:trc=bt709:space=bt709:fast=0[ref];[main][ref]psnr=eof_action=endall:stats_file='D\\:/Convert/FFMetrics/logs/psnr_logfile-6.txt'" -f null -
Input #0, matroska,webm, from 'F:\Convert\files\[DC] Make Heroine ga Oosugiru - 07_Telegram_HEVC(75).mkv':
  Metadata:
    COMPATIBLE_BRANDS: isomiso2avc1mp41
    MAJOR_BRAND     : isom
    MINOR_VERSION   : 512
    ENCODER         : Lavf61.7.100
  Duration: 00:24:06.79, start: -0.021000, bitrate: 1020 kb/s
  Stream #0:0: Video: hevc (Main 10), yuv420p10le(tv, bt709, progressive), 1920x1080 [SAR 1:1 DAR 16:9], 23.98 fps, 23.98 tbr, 1k tbn (default)
      Metadata:
        HANDLER_NAME    : VideoHandler
        VENDOR_ID       : [0][0][0][0]
        ENCODER         : Lavc61.19.100 libx265
        BPS             : 823510
        DURATION        : 00:24:06.569708333
        NUMBER_OF_FRAMES: 34683
        NUMBER_OF_BYTES : 148908017
        _STATISTICS_WRITING_APP: mkvpropedit v94.0 ('Initiate') 64-bit
        _STATISTICS_WRITING_DATE_UTC: 2026-01-11 14:59:08
        _STATISTICS_TAGS: BPS DURATION NUMBER_OF_FRAMES NUMBER_OF_BYTES
  Stream #0:1: Audio: aac (LC), 48000 Hz, stereo, fltp (default)
      Metadata:
        HANDLER_NAME    : SoundHandler
        VENDOR_ID       : [0][0][0][0]
        ENCODER         : Lavc61.19.100 aac
        BPS             : 193194
        DURATION        : 00:24:06.784000000
        NUMBER_OF_FRAMES: 67819
        NUMBER_OF_BYTES : 34938755
        _STATISTICS_WRITING_APP: mkvpropedit v94.0 ('Initiate') 64-bit
        _STATISTICS_WRITING_DATE_UTC: 2026-01-11 14:59:08
        _STATISTICS_TAGS: BPS DURATION NUMBER_OF_FRAMES NUMBER_OF_BYTES
Input #1, mov,mp4,m4a,3gp,3g2,mj2, from 'F:\Convert\files\[DC] Make Heroine ga Oosugiru - 07_Telegram.mp4':
  Metadata:
    major_brand     : isom
    minor_version   : 512
    compatible_brands: isomiso2avc1mp41
    encoder         : Lavf60.16.100
  Duration: 00:24:06.74, start: 0.000000, bitrate: 3764 kb/s
  Stream #1:0[0x1](und): Video: h264 (High) (avc1 / 0x31637661), yuv420p(tv, bt709, progressive), 1920x1080 [SAR 1:1 DAR 16:9], 3616 kb/s, 23.98 fps, 23.98 tbr, 24k tbn (default)
      Metadata:
        handler_name    : VideoHandler
        vendor_id       : [0][0][0][0]
        encoder         : Lavc60.31.102 h264_qsv
  Stream #1:1[0x2](und): Audio: aac (HE-AACv2) (mp4a / 0x6134706D), 48000 Hz, stereo, fltp, 144 kb/s (default)
      Metadata:
        handler_name    : SoundHandler
        vendor_id       : [0][0][0][0]
Stream mapping:
  Stream #0:0 (hevc) -> settb:default
  Stream #1:0 (h264) -> settb:default
  psnr:default -> Stream #0:0 (wrapped_avframe)
  Stream #0:1 -> #0:1 (aac (native) -> pcm_s16le (native))
Output #0, null, to 'pipe:':
  Metadata:
    COMPATIBLE_BRANDS: isomiso2avc1mp41
    MAJOR_BRAND     : isom
    MINOR_VERSION   : 512
    encoder         : Lavf61.7.100
  Stream #0:0: Video: wrapped_avframe, yuv420p10le(tv, bt709, progressive), 1920x1080 [SAR 1:1 DAR 16:9], q=2-31, 200 kb/s, 23.98 fps, 23.98 tbn
      Metadata:
        encoder         : Lavc61.19.100 wrapped_avframe
  Stream #0:1: Audio: pcm_s16le, 48000 Hz, stereo, s16, 1536 kb/s (default)
      Metadata:
        HANDLER_NAME    : SoundHandler
        VENDOR_ID       : [0][0][0][0]
        _STATISTICS_TAGS: BPS DURATION NUMBER_OF_FRAMES NUMBER_OF_BYTES
        BPS             : 193194
        DURATION        : 00:24:06.784000000
        NUMBER_OF_FRAMES: 67819
        NUMBER_OF_BYTES : 34938755
        _STATISTICS_WRITING_APP: mkvpropedit v94.0 ('Initiate') 64-bit
        _STATISTICS_WRITING_DATE_UTC: 2026-01-11 14:59:08
        encoder         : Lavc61.19.100 pcm_s16le
frame=   88 fps=0.0 q=-0.0 size=N/A time=00:00:03.67 bitrate=N/A speed=7.31x    frame=  243 fps=238 q=-0.0 size=N/A time=00:00:10.13 bitrate=N/A speed=9.92x    frame=  431 fps=281 q=-0.0 size=N/A time=00:00:17.97 bitrate=N/A speed=11.7x    frame=  625 fps=303 q=-0.0 size=N/A time=00:00:26.06 bitrate=N/A speed=12.6x    frame=  795 fps=309 q=-0.0 size=N/A time=00:00:33.15 bitrate=N/A speed=12.9x    frame=  944 fps=306 q=-0.0 size=N/A time=00:00:39.37 bitrate=N/A speed=12.8x    frame= 1098 fps=304 q=-0.0 size=N/A time=00:00:45.79 bitrate=N/A speed=12.7x    frame= 1259 fps=304 q=-0.0 size=N/A time=00:00:52.51 bitrate=N/A speed=12.7x    frame= 1410 fps=303 q=-0.0 size=N/A time=00:00:58.80 bitrate=N/A speed=12.7x    frame= 1550 fps=300 q=-0.0 size=N/A time=00:01:04.64 bitrate=N/A speed=12.5x    frame= 1701 fps=299 q=-0.0 size=N/A time=00:01:10.94 bitrate=N/A speed=12.5x    frame= 1879 fps=302 q=-0.0 size=N/A time=00:01:18.36 bitrate=N/A speed=12.6x    frame= 2029 fps=302 q=-0.0 size=N/A time=00:01:24.62 bitrate=N/A speed=12.6x    frame= 2130 fps=294 q=-0.0 size=N/A time=00:01:28.83 bitrate=N/A speed=12.3x    frame= 2262 fps=291 q=-0.0 size=N/A time=00:01:34.34 bitrate=N/A speed=12.2x    frame= 2408 fps=291 q=-0.0 size=N/A time=00:01:40.43 bitrate=N/A speed=12.1x    frame= 2531 fps=288 q=-0.0 size=N/A time=00:01:45.56 bitrate=N/A speed=  12x    frame= 2684 fps=288 q=-0.0 size=N/A time=00:01:51.94 bitrate=N/A speed=  12x    frame= 2867 fps=291 q=-0.0 size=N/A time=00:01:59.57 bitrate=N/A speed=12.2x    frame= 3035 fps=293 q=-0.0 size=N/A time=00:02:06.58 bitrate=N/A speed=12.2x    frame= 3228 fps=297 q=-0.0 size=N/A time=00:02:14.63 bitrate=N/A speed=12.4x    frame= 3418 fps=300 q=-0.0 size=N/A time=00:02:22.55 bitrate=N/A speed=12.5x    frame= 3599 fps=303 q=-0.0 size=N/A time=00:02:30.10 bitrate=N/A speed=12.6x    frame= 3788 fps=305 q=-0.0 size=N/A time=00:02:37.99 bitrate=N/A speed=12.7x    frame= 3986 fps=308 q=-0.0 size=N/A time=00:02:46.24 bitrate=N/A speed=12.9x    frame= 4163 fps=310 q=-0.0 size=N/A time=00:02:53.63 bitrate=N/A speed=12.9x    frame= 4350 fps=312 q=-0.0 size=N/A time=00:03:01.43 bitrate=N/A speed=  13x    frame= 4509 fps=311 q=-0.0 size=N/A time=00:03:08.06 bitrate=N/A speed=  13x    frame= 4693 fps=313 q=-0.0 size=N/A time=00:03:15.73 bitrate=N/A speed=13.1x    frame= 4877 fps=315 q=-0.0 size=N/A time=00:03:23.41 bitrate=N/A speed=13.1x    frame= 5059 fps=316 q=-0.0 size=N/A time=00:03:31.00 bitrate=N/A speed=13.2x    frame= 5248 fps=317 q=-0.0 size=N/A time=00:03:38.88 bitrate=N/A speed=13.2x    frame= 5442 fps=319 q=-0.0 size=N/A time=00:03:46.97 bitrate=N/A speed=13.3x    frame= 5611 fps=319 q=-0.0 size=N/A time=00:03:54.02 bitrate=N/A speed=13.3x    frame= 5799 fps=321 q=-0.0 size=N/A time=00:04:01.86 bitrate=N/A speed=13.4x    frame= 5988 fps=322 q=-0.0 size=N/A time=00:04:09.74 bitrate=N/A speed=13.4x    frame= 6172 fps=323 q=-0.0 size=N/A time=00:04:17.42 bitrate=N/A speed=13.5x    frame= 6354 fps=324 q=-0.0 size=N/A time=00:04:25.01 bitrate=N/A speed=13.5x    frame= 6552 fps=325 q=-0.0 size=N/A time=00:04:33.27 bitrate=N/A speed=13.6x    frame= 6730 fps=326 q=-0.0 size=N/A time=00:04:40.69 bitrate=N/A speed=13.6x    frame= 6911 fps=326 q=-0.0 size=N/A time=00:04:48.24 bitrate=N/A speed=13.6x    frame= 7064 fps=326 q=-0.0 size=N/A time=00:04:54.62 bitrate=N/A speed=13.6x    frame= 7252 fps=327 q=-0.0 size=N/A time=00:05:02.46 bitrate=N/A speed=13.6x    frame= 7423 fps=327 q=-0.0 size=N/A time=00:05:09.60 bitrate=N/A speed=13.6x    frame= 7613 fps=327 q=-0.0 size=N/A time=00:05:17.52 bitrate=N/A speed=13.7x    frame= 7793 fps=328 q=-0.0 size=N/A time=00:05:25.03 bitrate=N/A speed=13.7x    frame= 7973 fps=328 q=-0.0 size=N/A time=00:05:32.54 bitrate=N/A speed=13.7x    frame= 8154 fps=329 q=-0.0 size=N/A time=00:05:40.08 bitrate=N/A speed=13.7x    frame= 8348 fps=330 q=-0.0 size=N/A time=00:05:48.18 bitrate=N/A speed=13.7x    frame= 8526 fps=330 q=-0.0 size=N/A time=00:05:55.60 bitrate=N/A speed=13.8x    frame= 8707 fps=330 q=-0.0 size=N/A time=00:06:03.15 bitrate=N/A speed=13.8x    frame= 8890 fps=331 q=-0.0 size=N/A time=00:06:10.78 bitrate=N/A speed=13.8x    frame= 9082 fps=332 q=-0.0 size=N/A time=00:06:18.79 bitrate=N/A speed=13.8x    frame= 9264 fps=332 q=-0.0 size=N/A time=00:06:26.38 bitrate=N/A speed=13.9x    frame= 9432 fps=332 q=-0.0 size=N/A time=00:06:33.39 bitrate=N/A speed=13.8x    frame= 9601 fps=332 q=-0.0 size=N/A time=00:06:40.44 bitrate=N/A speed=13.8x    frame= 9776 fps=332 q=-0.0 size=N/A time=00:06:47.74 bitrate=N/A speed=13.8x    frame= 9961 fps=333 q=-0.0 size=N/A time=00:06:55.45 bitrate=N/A speed=13.9x    frame=10127 fps=332 q=-0.0 size=N/A time=00:07:02.38 bitrate=N/A speed=13.9x    frame=10309 fps=333 q=-0.0 size=N/A time=00:07:09.97 bitrate=N/A speed=13.9x    frame=10477 fps=333 q=-0.0 size=N/A time=00:07:16.97 bitrate=N/A speed=13.9x    frame=10664 fps=333 q=-0.0 size=N/A time=00:07:24.77 bitrate=N/A speed=13.9x    frame=10849 fps=333 q=-0.0 size=N/A time=00:07:32.49 bitrate=N/A speed=13.9x    frame=11029 fps=334 q=-0.0 size=N/A time=00:07:40.00 bitrate=N/A speed=13.9x    frame=11211 fps=334 q=-0.0 size=N/A time=00:07:47.59 bitrate=N/A speed=13.9x    frame=11397 fps=334 q=-0.0 size=N/A time=00:07:55.34 bitrate=N/A speed=13.9x    frame=11578 fps=335 q=-0.0 size=N/A time=00:08:02.89 bitrate=N/A speed=  14x    frame=11774 fps=335 q=-0.0 size=N/A time=00:08:11.07 bitrate=N/A speed=  14x    frame=11924 fps=335 q=-0.0 size=N/A time=00:08:17.33 bitrate=N/A speed=  14x    frame=12116 fps=335 q=-0.0 size=N/A time=00:08:25.33 bitrate=N/A speed=  14x    frame=12312 fps=336 q=-0.0 size=N/A time=00:08:33.51 bitrate=N/A speed=  14x    frame=12498 fps=336 q=-0.0 size=N/A time=00:08:41.27 bitrate=N/A speed=  14x    frame=12686 fps=336 q=-0.0 size=N/A time=00:08:49.11 bitrate=N/A speed=  14x    frame=12877 fps=337 q=-0.0 size=N/A time=00:08:57.07 bitrate=N/A speed=  14x    frame=13052 fps=337 q=-0.0 size=N/A time=00:09:04.37 bitrate=N/A speed=14.1x    frame=13240 fps=337 q=-0.0 size=N/A time=00:09:12.21 bitrate=N/A speed=14.1x    frame=13432 fps=338 q=-0.0 size=N/A time=00:09:20.22 bitrate=N/A speed=14.1x    frame=13619 fps=338 q=-0.0 size=N/A time=00:09:28.02 bitrate=N/A speed=14.1x    frame=13808 fps=338 q=-0.0 size=N/A time=00:09:35.90 bitrate=N/A speed=14.1x    frame=14005 fps=339 q=-0.0 size=N/A time=00:09:44.12 bitrate=N/A speed=14.1x    frame=14175 fps=339 q=-0.0 size=N/A time=00:09:51.21 bitrate=N/A speed=14.1x    frame=14354 fps=339 q=-0.0 size=N/A time=00:09:58.68 bitrate=N/A speed=14.1x    frame=14521 fps=339 q=-0.0 size=N/A time=00:10:05.64 bitrate=N/A speed=14.1x    frame=14716 fps=339 q=-0.0 size=N/A time=00:10:13.77 bitrate=N/A speed=14.1x    frame=14905 fps=340 q=-0.0 size=N/A time=00:10:21.66 bitrate=N/A speed=14.2x    frame=15086 fps=340 q=-0.0 size=N/A time=00:10:29.21 bitrate=N/A speed=14.2x    frame=15241 fps=339 q=-0.0 size=N/A time=00:10:35.67 bitrate=N/A speed=14.1x    frame=15431 fps=340 q=-0.0 size=N/A time=00:10:43.60 bitrate=N/A speed=14.2x    frame=15627 fps=340 q=-0.0 size=N/A time=00:10:51.77 bitrate=N/A speed=14.2x    frame=15816 fps=340 q=-0.0 size=N/A time=00:10:59.65 bitrate=N/A speed=14.2x    frame=16008 fps=341 q=-0.0 size=N/A time=00:11:07.66 bitrate=N/A speed=14.2x    frame=16200 fps=341 q=-0.0 size=N/A time=00:11:15.67 bitrate=N/A speed=14.2x    frame=16389 fps=341 q=-0.0 size=N/A time=00:11:23.55 bitrate=N/A speed=14.2x    frame=16573 fps=341 q=-0.0 size=N/A time=00:11:31.23 bitrate=N/A speed=14.2x    frame=16768 fps=342 q=-0.0 size=N/A time=00:11:39.36 bitrate=N/A speed=14.3x    frame=16935 fps=342 q=-0.0 size=N/A time=00:11:46.33 bitrate=N/A speed=14.2x    frame=17126 fps=342 q=-0.0 size=N/A time=00:11:54.29 bitrate=N/A speed=14.3x    frame=17321 fps=342 q=-0.0 size=N/A time=00:12:02.43 bitrate=N/A speed=14.3x    frame=17508 fps=343 q=-0.0 size=N/A time=00:12:10.22 bitrate=N/A speed=14.3x    frame=17691 fps=343 q=-0.0 size=N/A time=00:12:17.86 bitrate=N/A speed=14.3x    frame=17877 fps=343 q=-0.0 size=N/A time=00:12:25.61 bitrate=N/A speed=14.3x    frame=18062 fps=343 q=-0.0 size=N/A time=00:12:33.33 bitrate=N/A speed=14.3x    frame=18246 fps=343 q=-0.0 size=N/A time=00:12:41.01 bitrate=N/A speed=14.3x    frame=18431 fps=343 q=-0.0 size=N/A time=00:12:48.72 bitrate=N/A speed=14.3x    frame=18610 fps=343 q=-0.0 size=N/A time=00:12:56.19 bitrate=N/A speed=14.3x    frame=18790 fps=343 q=-0.0 size=N/A time=00:13:03.69 bitrate=N/A speed=14.3x    frame=18987 fps=344 q=-0.0 size=N/A time=00:13:11.91 bitrate=N/A speed=14.3x    frame=19170 fps=344 q=-0.0 size=N/A time=00:13:19.54 bitrate=N/A speed=14.3x    frame=19351 fps=344 q=-0.0 size=N/A time=00:13:27.09 bitrate=N/A speed=14.3x    frame=19507 fps=344 q=-0.0 size=N/A time=00:13:33.60 bitrate=N/A speed=14.3x    frame=19696 fps=344 q=-0.0 size=N/A time=00:13:41.48 bitrate=N/A speed=14.3x    frame=19883 fps=344 q=-0.0 size=N/A time=00:13:49.28 bitrate=N/A speed=14.3x    frame=20063 fps=344 q=-0.0 size=N/A time=00:13:56.79 bitrate=N/A speed=14.3x    frame=20248 fps=344 q=-0.0 size=N/A time=00:14:04.51 bitrate=N/A speed=14.4x    frame=20434 fps=344 q=-0.0 size=N/A time=00:14:12.26 bitrate=N/A speed=14.4x    frame=20596 fps=344 q=-0.0 size=N/A time=00:14:19.02 bitrate=N/A speed=14.3x    frame=20753 fps=344 q=-0.0 size=N/A time=00:14:25.57 bitrate=N/A speed=14.3x    frame=20884 fps=343 q=-0.0 size=N/A time=00:14:31.03 bitrate=N/A speed=14.3x    frame=21051 fps=343 q=-0.0 size=N/A time=00:14:38.00 bitrate=N/A speed=14.3x    frame=21225 fps=343 q=-0.0 size=N/A time=00:14:45.25 bitrate=N/A speed=14.3x    frame=21385 fps=342 q=-0.0 size=N/A time=00:14:51.93 bitrate=N/A speed=14.3x    frame=21566 fps=342 q=-0.0 size=N/A time=00:14:59.48 bitrate=N/A speed=14.3x    frame=21743 fps=342 q=-0.0 size=N/A time=00:15:06.86 bitrate=N/A speed=14.3x    frame=21919 fps=342 q=-0.0 size=N/A time=00:15:14.20 bitrate=N/A speed=14.3x    frame=22093 fps=342 q=-0.0 size=N/A time=00:15:21.46 bitrate=N/A speed=14.3x    frame=22274 fps=342 q=-0.0 size=N/A time=00:15:29.01 bitrate=N/A speed=14.3x    frame=22449 fps=342 q=-0.0 size=N/A time=00:15:36.31 bitrate=N/A speed=14.3x    frame=22621 fps=342 q=-0.0 size=N/A time=00:15:43.48 bitrate=N/A speed=14.3x    frame=22789 fps=342 q=-0.0 size=N/A time=00:15:50.49 bitrate=N/A speed=14.3x    frame=22972 fps=342 q=-0.0 size=N/A time=00:15:58.12 bitrate=N/A speed=14.3x    frame=23088 fps=341 q=-0.0 size=N/A time=00:16:02.96 bitrate=N/A speed=14.2x    frame=23265 fps=341 q=-0.0 size=N/A time=00:16:10.34 bitrate=N/A speed=14.2x    frame=23442 fps=341 q=-0.0 size=N/A time=00:16:17.72 bitrate=N/A speed=14.2x    frame=23625 fps=342 q=-0.0 size=N/A time=00:16:25.35 bitrate=N/A speed=14.2x    frame=23790 fps=341 q=-0.0 size=N/A time=00:16:32.24 bitrate=N/A speed=14.2x    frame=23974 fps=341 q=-0.0 size=N/A time=00:16:39.91 bitrate=N/A speed=14.2x    frame=24135 fps=341 q=-0.0 size=N/A time=00:16:46.63 bitrate=N/A speed=14.2x    frame=24312 fps=341 q=-0.0 size=N/A time=00:16:54.01 bitrate=N/A speed=14.2x    frame=24480 fps=341 q=-0.0 size=N/A time=00:17:01.02 bitrate=N/A speed=14.2x    frame=24657 fps=341 q=-0.0 size=N/A time=00:17:08.40 bitrate=N/A speed=14.2x    frame=24822 fps=341 q=-0.0 size=N/A time=00:17:15.28 bitrate=N/A speed=14.2x    frame=25012 fps=341 q=-0.0 size=N/A time=00:17:23.20 bitrate=N/A speed=14.2x    frame=25202 fps=341 q=-0.0 size=N/A time=00:17:31.13 bitrate=N/A speed=14.2x    frame=25379 fps=341 q=-0.0 size=N/A time=00:17:38.51 bitrate=N/A speed=14.2x    frame=25540 fps=341 q=-0.0 size=N/A time=00:17:45.23 bitrate=N/A speed=14.2x    frame=25725 fps=341 q=-0.0 size=N/A time=00:17:52.94 bitrate=N/A speed=14.2x    frame=25906 fps=341 q=-0.0 size=N/A time=00:18:00.49 bitrate=N/A speed=14.2x    frame=26091 fps=342 q=-0.0 size=N/A time=00:18:08.21 bitrate=N/A speed=14.2x    frame=26285 fps=342 q=-0.0 size=N/A time=00:18:16.30 bitrate=N/A speed=14.3x    frame=26462 fps=342 q=-0.0 size=N/A time=00:18:23.68 bitrate=N/A speed=14.3x    frame=26651 fps=342 q=-0.0 size=N/A time=00:18:31.56 bitrate=N/A speed=14.3x    frame=26837 fps=342 q=-0.0 size=N/A time=00:18:39.32 bitrate=N/A speed=14.3x    frame=27010 fps=342 q=-0.0 size=N/A time=00:18:46.54 bitrate=N/A speed=14.3x    frame=27178 fps=342 q=-0.0 size=N/A time=00:18:53.54 bitrate=N/A speed=14.3x    frame=27368 fps=342 q=-0.0 size=N/A time=00:19:01.47 bitrate=N/A speed=14.3x    frame=27542 fps=342 q=-0.0 size=N/A time=00:19:08.73 bitrate=N/A speed=14.3x    frame=27727 fps=342 q=-0.0 size=N/A time=00:19:16.44 bitrate=N/A speed=14.3x    frame=27865 fps=342 q=-0.0 size=N/A time=00:19:22.20 bitrate=N/A speed=14.3x    frame=28029 fps=342 q=-0.0 size=N/A time=00:19:29.04 bitrate=N/A speed=14.2x    frame=28211 fps=342 q=-0.0 size=N/A time=00:19:36.63 bitrate=N/A speed=14.2x    frame=28399 fps=342 q=-0.0 size=N/A time=00:19:44.47 bitrate=N/A speed=14.3x    frame=28580 fps=342 q=-0.0 size=N/A time=00:19:52.02 bitrate=N/A speed=14.3x    frame=28766 fps=342 q=-0.0 size=N/A time=00:19:59.78 bitrate=N/A speed=14.3x    frame=28925 fps=342 q=-0.0 size=N/A time=00:20:06.41 bitrate=N/A speed=14.3x    frame=29096 fps=342 q=-0.0 size=N/A time=00:20:13.54 bitrate=N/A speed=14.3x    frame=29266 fps=342 q=-0.0 size=N/A time=00:20:20.63 bitrate=N/A speed=14.3x    frame=29443 fps=342 q=-0.0 size=N/A time=00:20:28.01 bitrate=N/A speed=14.2x    frame=29605 fps=341 q=-0.0 size=N/A time=00:20:34.77 bitrate=N/A speed=14.2x    frame=29778 fps=341 q=-0.0 size=N/A time=00:20:42.03 bitrate=N/A speed=14.2x    frame=29950 fps=341 q=-0.0 size=N/A time=00:20:49.16 bitrate=N/A speed=14.2x    frame=30112 fps=341 q=-0.0 size=N/A time=00:20:55.92 bitrate=N/A speed=14.2x    frame=30262 fps=341 q=-0.0 size=N/A time=00:21:02.17 bitrate=N/A speed=14.2x    frame=30453 fps=341 q=-0.0 size=N/A time=00:21:10.14 bitrate=N/A speed=14.2x    frame=30633 fps=341 q=-0.0 size=N/A time=00:21:17.65 bitrate=N/A speed=14.2x    frame=30818 fps=341 q=-0.0 size=N/A time=00:21:25.36 bitrate=N/A speed=14.2x    frame=31004 fps=341 q=-0.0 size=N/A time=00:21:33.12 bitrate=N/A speed=14.2x    frame=31183 fps=341 q=-0.0 size=N/A time=00:21:40.59 bitrate=N/A speed=14.2x    frame=31358 fps=341 q=-0.0 size=N/A time=00:21:47.88 bitrate=N/A speed=14.2x    frame=31540 fps=341 q=-0.0 size=N/A time=00:21:55.48 bitrate=N/A speed=14.2x    frame=31723 fps=341 q=-0.0 size=N/A time=00:22:03.11 bitrate=N/A speed=14.2x    frame=31885 fps=341 q=-0.0 size=N/A time=00:22:09.87 bitrate=N/A speed=14.2x    frame=32060 fps=341 q=-0.0 size=N/A time=00:22:17.16 bitrate=N/A speed=14.2x    frame=32235 fps=341 q=-0.0 size=N/A time=00:22:24.46 bitrate=N/A speed=14.2x    frame=32420 fps=341 q=-0.0 size=N/A time=00:22:32.18 bitrate=N/A speed=14.2x    frame=32574 fps=341 q=-0.0 size=N/A time=00:22:38.60 bitrate=N/A speed=14.2x    frame=32712 fps=341 q=-0.0 size=N/A time=00:22:44.36 bitrate=N/A speed=14.2x    frame=32868 fps=341 q=-0.0 size=N/A time=00:22:50.86 bitrate=N/A speed=14.2x    frame=33048 fps=341 q=-0.0 size=N/A time=00:22:58.37 bitrate=N/A speed=14.2x    frame=33220 fps=341 q=-0.0 size=N/A time=00:23:05.55 bitrate=N/A speed=14.2x    frame=33393 fps=341 q=-0.0 size=N/A time=00:23:12.76 bitrate=N/A speed=14.2x    frame=33548 fps=340 q=-0.0 size=N/A time=00:23:19.23 bitrate=N/A speed=14.2x    frame=33701 fps=340 q=-0.0 size=N/A time=00:23:25.61 bitrate=N/A speed=14.2x    frame=33822 fps=340 q=-0.0 size=N/A time=00:23:30.65 bitrate=N/A speed=14.2x    frame=33957 fps=339 q=-0.0 size=N/A time=00:23:36.28 bitrate=N/A speed=14.1x    frame=34120 fps=339 q=-0.0 size=N/A time=00:23:43.08 bitrate=N/A speed=14.1x    frame=34272 fps=339 q=-0.0 size=N/A time=00:23:49.42 bitrate=N/A speed=14.1x    frame=34402 fps=338 q=-0.0 size=N/A time=00:23:54.85 bitrate=N/A speed=14.1x    frame=34570 fps=338 q=-0.0 size=N/A time=00:24:01.85 bitrate=N/A speed=14.1x    [Parsed_psnr_16 @ 000002c311e81080] PSNR y:49.171810 u:50.544046 v:50.611744 average:49.591838 min:38.012041 max:inf
[out#0/null @ 000002c30ab18a00] video:14903KiB audio:271276KiB subtitle:0KiB other streams:0KiB global headers:0KiB muxing overhead: unknown
frame=34683 fps=338 q=-0.0 Lsize=N/A time=00:24:06.57 bitrate=N/A speed=14.1x    
